<?xml version="1.0" standalone="no"?>
<!DOCTYPE svg PUBLIC "-//W3C//DTD SVG 20010904//EN"
 "http://www.w3.org/TR/2001/REC-SVG-20010904/DTD/svg10.dtd">
<svg version="1.0" xmlns="http://www.w3.org/2000/svg"
 width="300.000000pt" height="300.000000pt" viewBox="0 0 300.000000 300.000000"
 preserveAspectRatio="xMidYMid meet">
<metadata>
Created by potrace 1.10, written by Peter Selinger 2001-2011
</metadata>
<g transform="translate(0.000000,300.000000) scale(0.100000,-0.100000)"
fill="#000000" stroke="none">
<path d="M1263 2749 c-386 -200 -404 -211 -424 -242 -18 -30 -19 -53 -19 -322
0 -264 2 -293 18 -320 15 -24 76 -60 278 -165 227 -118 265 -135 306 -134 38
0 78 17 225 92 294 150 336 174 360 210 21 32 22 41 23 306 1 284 -3 311 -43
354 -12 13 -135 81 -273 152 -202 105 -260 130 -293 130 -30 0 -70 -15 -158
-61z m452 -95 c152 -78 250 -135 257 -148 10 -20 10 -20 -8 -4 -21 18 -286
158 -299 158 -4 0 0 -9 11 -21 22 -24 125 -79 149 -79 20 0 119 -50 112 -56
-3 -3 -27 6 -53 19 l-49 25 -210 -105 -210 -105 -147 77 c-141 73 -176 84
-125 38 30 -28 250 -143 272 -143 17 0 385 181 411 202 12 9 64 -9 64 -22 0
-17 -47 -44 -224 -132 -176 -87 -192 -93 -250 -93 -48 0 -76 7 -130 33 -78 37
-101 38 -29 1 27 -13 62 -34 80 -47 68 -50 87 -46 318 78 116 61 228 115 250
119 37 8 38 9 17 18 l-24 9 26 12 c24 11 28 9 46 -21 18 -30 20 -51 20 -282 0
-244 -1 -251 -23 -277 -13 -16 -123 -78 -271 -153 -221 -113 -252 -127 -285
-121 -43 7 -484 233 -523 268 -36 33 -42 93 -36 342 l6 201 58 53 c49 44 54
51 29 42 -16 -6 -40 -21 -52 -32 -13 -12 -23 -17 -23 -10 0 18 44 43 294 172
201 102 244 121 272 117 18 -3 143 -63 279 -133z m-282 -1042 c42 4 99 29 296
132 133 70 245 125 247 123 5 -5 -145 -86 -356 -193 -126 -65 -162 -79 -200
-79 -38 0 -82 20 -280 122 -129 67 -244 129 -255 138 -11 9 96 -43 238 -115
251 -128 261 -132 310 -128z"/>
<path d="M1350 2749 c-19 -11 -26 -17 -15 -14 11 4 45 9 75 12 50 4 63 0 149
-42 51 -25 95 -44 97 -42 2 1 -43 26 -99 55 -113 58 -150 64 -207 31z"/>
<path d="M1339 2721 c-37 -12 -355 -180 -367 -194 -5 -7 -12 -26 -15 -44 -6
-28 -3 -33 26 -44 18 -7 37 -15 42 -17 6 -3 -3 7 -18 22 -20 18 -27 34 -25 52
3 23 25 37 178 115 l175 89 78 0 c66 0 86 -4 137 -30 33 -17 60 -35 60 -40 0
-5 -11 -16 -24 -25 -21 -14 -28 -13 -90 16 -61 29 -71 31 -104 20 -49 -15
-254 -124 -256 -136 -3 -25 45 -11 150 44 64 34 123 61 132 61 9 0 45 -16 80
-34 l63 -34 54 27 c54 28 61 40 21 42 -20 0 -20 1 2 11 12 6 22 14 22 17 0 3
-42 25 -94 49 -95 43 -160 53 -227 33z"/>
<path d="M899 2413 c-11 -12 -14 -58 -14 -197 0 -198 7 -267 29 -301 12 -19
443 -254 483 -263 11 -3 13 10 11 59 l-3 62 -191 101 c-105 55 -199 107 -208
115 -13 11 -16 36 -16 153 l0 140 23 -15 c12 -9 82 -48 155 -88 l134 -71 -4
-70 c-3 -62 -1 -72 17 -81 11 -6 33 -20 48 -30 16 -10 32 -16 35 -12 12 12 1
229 -13 255 -24 45 -68 77 -210 150 -77 39 -131 64 -120 55 11 -9 70 -43 132
-76 158 -84 193 -132 193 -259 0 -70 0 -71 -22 -59 -33 17 -38 28 -38 85 0 54
-23 97 -59 109 -10 3 -67 32 -127 65 -60 33 -117 60 -126 60 -37 0 -50 -53
-46 -185 2 -103 6 -126 22 -144 10 -11 100 -64 200 -117 99 -53 185 -100 189
-104 5 -4 7 -21 5 -38 l-3 -31 -191 102 c-106 56 -202 111 -214 122 -12 11
-31 37 -42 59 -17 34 -19 58 -18 229 0 106 4 195 9 200 11 11 61 13 91 3 23
-7 22 -6 -5 13 -36 25 -87 27 -106 4z"/>
<path d="M1702 2335 c-96 -51 -187 -106 -204 -121 -54 -51 -58 -73 -58 -303 0
-115 3 -216 6 -225 3 -9 15 -16 27 -16 27 0 447 216 470 242 12 14 17 37 17
74 0 30 -2 54 -4 54 -1 0 -93 -47 -202 -104 -109 -58 -201 -102 -204 -98 -3 4
-4 66 -2 139 l3 132 117 62 c64 34 128 71 141 81 39 30 44 23 39 -52 -3 -39
-2 -73 3 -75 4 -3 30 9 57 26 l50 31 1 100 c2 116 -11 149 -57 147 -15 0 -105
-43 -200 -94z m209 65 c17 -9 19 -22 19 -100 0 -78 -2 -91 -19 -100 -28 -15
-31 -13 -31 18 0 36 -26 72 -51 72 -30 0 -287 -138 -299 -160 -6 -10 -10 -82
-10 -159 0 -200 -9 -197 227 -75 l184 96 -3 -37 -3 -37 -205 -109 c-113 -60
-213 -109 -222 -109 -10 0 -22 9 -28 19 -13 25 -13 354 0 401 17 60 67 104
200 176 69 37 143 78 165 90 46 27 50 27 76 14z"/>
<path d="M1140 2366 c0 -3 14 -12 30 -21 17 -9 30 -13 30 -11 0 3 -13 12 -30
21 -16 9 -30 13 -30 11z"/>
<path d="M572 1500 c-69 -43 -95 -181 -45 -248 34 -46 84 -74 120 -69 40 7 83
35 83 54 0 11 -9 7 -31 -11 -43 -36 -88 -35 -132 4 -60 52 -69 152 -21 225 31
47 106 59 155 24 16 -11 29 -15 29 -10 0 18 -62 51 -95 51 -16 0 -45 -9 -63
-20z"/>
<path d="M872 1500 c-89 -221 -122 -309 -121 -321 0 -8 9 5 19 29 11 23 24 42
30 42 6 0 4 -12 -6 -31 -9 -19 -12 -35 -7 -40 6 -6 14 6 22 31 l12 40 63 0 63
0 13 -41 c8 -23 16 -37 18 -30 2 6 -1 25 -7 41 -6 19 -6 30 0 30 8 0 14 -12
35 -69 2 -8 7 -11 11 -8 3 4 -1 26 -10 49 l-17 43 -95 -3 c-80 -3 -95 -1 -95
12 0 12 17 16 89 18 l89 3 -35 88 c-19 48 -38 87 -42 87 -3 0 -21 -38 -39 -85
-19 -47 -38 -85 -43 -85 -13 0 -13 -3 31 105 23 53 39 102 37 109 -3 6 -9 0
-15 -14z m67 -148 c12 -31 17 -52 10 -50 -15 5 -60 118 -52 131 4 6 9 2 14 -9
4 -10 16 -43 28 -72z m-25 -30 c7 -20 4 -22 -32 -22 l-40 0 21 50 21 50 12
-28 c6 -16 15 -38 18 -50z"/>
<path d="M1050 1510 c0 -5 25 -10 56 -10 71 0 91 -11 105 -59 10 -33 9 -45 -7
-77 -11 -21 -25 -40 -31 -42 -20 -6 -15 16 7 38 11 11 20 33 20 50 0 48 -30
70 -95 70 l-55 0 0 -157 c0 -86 3 -154 6 -150 3 3 5 69 5 145 -1 88 2 143 9
147 7 4 10 -43 10 -144 0 -94 4 -151 10 -151 6 0 10 56 10 148 l0 148 34 -4
c27 -3 37 -10 43 -31 13 -37 5 -61 -22 -71 l-24 -9 44 -80 c25 -43 45 -84 45
-90 0 -6 5 -11 10 -11 17 0 12 16 -23 76 l-33 56 28 28 c22 22 28 38 28 70 0
47 -21 95 -49 110 -25 13 -131 13 -131 0z"/>
<path d="M1364 1510 c-11 -4 -34 -24 -51 -43 -75 -85 -44 -235 57 -277 45 -19
102 1 137 47 25 33 28 45 28 113 0 50 -5 83 -14 93 -12 15 -21 7 -83 -71 -84
-106 -86 -107 -94 -99 -4 3 28 49 70 101 42 52 76 100 76 105 0 15 -54 41 -82
40 -13 0 -32 -4 -44 -9z m99 -24 c23 -18 5 -31 -22 -16 -31 16 -57 12 -90 -16
-41 -34 -58 -91 -42 -143 12 -43 61 -91 92 -91 34 0 78 29 95 62 13 24 15 46
10 92 -4 44 -3 57 5 49 23 -23 23 -99 -1 -148 -64 -132 -220 -80 -220 75 0 58
18 99 56 129 31 24 90 27 117 7z m-19 -35 c6 -9 -98 -143 -117 -150 -6 -2 -8
17 -5 53 6 69 35 106 84 106 18 0 35 -4 38 -9z m50 -128 c-9 -46 -49 -83 -90
-83 -18 0 -35 3 -37 8 -3 4 23 42 57 84 60 75 61 76 68 50 4 -15 5 -41 2 -59z"/>
<path d="M1582 1373 l-2 -153 95 0 c57 0 95 4 95 10 0 6 -32 10 -75 10 l-74 0
-4 143 -3 142 -2 -142 c-1 -85 -6 -143 -12 -143 -5 0 -11 59 -13 143 l-3 142
-2 -152z"/>
<path d="M1800 1442 c0 -66 3 -82 15 -82 8 0 15 -4 15 -10 0 -5 -7 -10 -15
-10 -12 0 -15 -16 -15 -87 0 -47 3 -83 7 -80 3 4 5 38 4 76 -1 40 2 72 8 76 8
4 11 -21 11 -74 0 -47 4 -81 10 -81 6 0 10 65 10 175 0 110 -4 175 -10 175 -6
0 -10 -30 -10 -70 0 -43 -4 -70 -11 -70 -6 0 -10 24 -8 65 1 36 -1 68 -4 72
-4 3 -7 -30 -7 -75z"/>
<path d="M1884 1345 c0 -99 2 -138 3 -87 2 51 2 132 0 180 -1 48 -3 6 -3 -93z"/>
<path d="M2060 1418 l-5 -107 -65 80 c-35 44 -68 83 -72 85 -4 3 -8 -66 -8
-153 1 -118 3 -153 11 -139 7 11 10 55 7 112 -3 70 -1 91 7 82 36 -41 144
-176 153 -193 10 -18 11 -18 12 -2 0 10 -40 67 -90 128 -49 61 -90 118 -90
127 0 19 -4 23 95 -100 42 -54 79 -98 81 -98 2 0 3 64 2 143 l-2 142 -6 -130
c-6 -155 -19 -146 -23 15 l-2 115 -5 -107z"/>
<path d="M2267 1513 c-16 -26 -127 -316 -126 -331 0 -9 8 2 17 26 9 23 20 42
25 42 5 0 6 -7 3 -16 -14 -36 -18 -64 -9 -64 5 0 14 17 19 38 l9 37 68 3 c49
2 67 0 67 -10 1 -7 7 -26 15 -43 14 -27 15 -28 11 -5 -2 14 -7 33 -11 43 -4
10 -3 17 4 17 5 0 16 -18 22 -40 7 -22 16 -40 21 -40 12 0 10 13 -7 54 l-15
36 -101 0 c-76 0 -100 3 -97 13 3 8 33 13 91 15 48 1 87 6 87 10 1 13 -65 172
-71 172 -3 0 -20 -37 -39 -82 -37 -93 -38 -94 -46 -86 -3 3 13 52 36 108 23
56 40 104 37 106 -3 3 -7 2 -10 -3z m53 -146 c12 -32 20 -60 17 -64 -7 -6 -43
73 -53 115 -10 43 10 14 36 -51z m-10 -64 c0 -2 -18 -3 -39 -3 l-40 0 13 33
c7 17 16 41 20 52 6 17 11 12 27 -30 10 -27 19 -51 19 -52z"/>
<path d="M589 1465 c-38 -21 -62 -78 -56 -134 4 -36 13 -52 41 -78 20 -18 45
-33 57 -33 23 0 79 30 79 42 0 13 -17 9 -30 -7 -21 -25 -68 -18 -101 14 -62
63 -24 191 56 191 22 0 41 -8 55 -22 17 -18 20 -19 20 -5 0 18 -48 47 -77 47
-10 -1 -30 -7 -44 -15z"/>
<path d="M1120 1313 c0 -14 65 -142 73 -142 14 -2 7 18 -29 84 -34 62 -44 75
-44 58z"/>
<path d="M1580 1188 c0 -10 26 -13 95 -13 69 0 95 3 95 13 0 9 -26 12 -95 12
-69 0 -95 -3 -95 -12z"/>
<path d="M685 1106 c-68 -30 -128 -146 -76 -146 11 0 21 -9 25 -23 3 -13 18
-36 32 -50 38 -38 109 -38 153 -1 17 14 28 30 25 35 -3 5 -21 -4 -40 -21 -19
-16 -44 -30 -55 -30 -37 0 -77 29 -90 65 -8 22 -20 35 -31 35 -22 0 -22 2 -4
43 42 100 174 116 224 26 10 -16 23 -29 30 -29 21 0 13 19 -26 58 -51 51 -108
64 -167 38z"/>
<path d="M990 1110 c0 -5 25 -10 55 -10 46 0 60 -4 80 -25 14 -13 25 -35 25
-48 0 -34 -35 -74 -70 -82 l-30 -7 30 -41 c57 -78 67 -90 73 -80 3 5 -12 32
-34 61 -29 38 -36 52 -24 52 9 0 30 13 46 29 49 50 37 121 -26 147 -39 16
-125 19 -125 4z"/>
<path d="M1220 1114 c0 -4 23 -46 50 -94 45 -79 50 -93 50 -149 0 -34 4 -61
10 -61 6 0 10 28 10 65 0 61 -4 72 -52 155 -46 79 -68 106 -68 84z"/>
<path d="M1270 1110 c0 -5 5 -10 10 -10 6 0 10 5 10 10 0 6 -4 10 -10 10 -5 0
-10 -4 -10 -10z"/>
<path d="M1447 1098 c-8 -13 -28 -47 -45 -76 l-30 -54 -37 61 c-20 34 -41 61
-47 61 -12 0 -11 -2 37 -83 21 -37 42 -67 46 -67 12 0 108 169 99 175 -5 3
-16 -5 -23 -17z"/>
<path d="M1570 1111 c0 -6 17 -11 39 -11 31 0 44 -6 60 -26 12 -15 21 -35 21
-46 0 -31 -54 -78 -89 -78 -30 0 -31 -1 -31 -50 0 -33 4 -50 13 -50 8 0 11 14
9 45 -4 45 -4 45 28 45 42 0 90 47 90 89 0 47 -37 82 -93 88 -31 4 -47 2 -47
-6z"/>
<path d="M1750 1110 c0 -5 23 -10 50 -10 l50 0 0 -70 c0 -63 2 -70 20 -70 18
0 20 -7 20 -55 0 -30 5 -55 10 -55 6 0 10 27 10 60 0 53 -2 60 -20 60 -18 0
-20 7 -20 75 l0 75 -60 0 c-33 0 -60 -4 -60 -10z"/>
<path d="M1890 1110 c0 -6 24 -10 55 -10 30 0 55 4 55 8 0 5 -25 10 -55 11
-32 1 -55 -3 -55 -9z"/>
<path d="M2109 1097 c-137 -73 -81 -277 75 -277 130 0 200 144 119 241 -44 52
-133 79 -133 41 0 -10 -12 -22 -30 -29 -16 -6 -38 -26 -50 -44 -47 -75 5 -169
93 -169 73 0 125 59 112 127 -7 40 -45 83 -72 83 -15 0 -13 -4 9 -23 70 -57
48 -155 -39 -173 -25 -5 -37 0 -64 24 -28 25 -34 37 -34 70 0 48 31 87 76 97
19 4 26 11 22 21 -3 9 1 14 12 14 32 0 76 -35 97 -78 18 -39 19 -48 8 -85 -34
-115 -164 -139 -234 -44 -46 62 -17 164 55 199 17 9 27 18 23 20 -5 3 -25 -4
-45 -15z"/>
<path d="M1378 1069 c-19 -33 -23 -49 -10 -49 8 0 42 57 42 71 0 18 -15 8 -32
-22z"/>
<path d="M695 1066 c-31 -13 -69 -59 -58 -69 3 -3 20 10 38 29 22 23 41 34 61
34 28 0 71 -22 86 -44 4 -6 10 -7 14 -3 14 13 -41 57 -77 62 -18 3 -48 -1 -64
-9z"/>
<path d="M942 950 c4 -172 22 -177 26 -7 l3 127 48 0 c33 0 56 -6 72 -19 21
-16 22 -22 11 -45 -9 -20 -19 -26 -42 -26 -16 0 -30 -4 -30 -10 0 -18 59 -11
80 10 24 24 25 48 4 78 -13 20 -24 22 -95 22 l-80 0 3 -130z"/>
<path d="M1530 945 c0 -83 4 -135 10 -135 6 0 10 48 10 125 l0 125 38 0 c35 0
62 -14 62 -31 0 -13 -31 -39 -46 -39 -8 0 -14 7 -14 15 0 8 -4 15 -10 15 -5 0
-10 -9 -10 -20 0 -16 7 -20 33 -20 36 0 67 25 67 53 0 26 -41 47 -92 47 l-48
0 0 -135z"/>
<path d="M1750 1070 c0 -5 18 -10 40 -10 22 0 40 5 40 10 0 6 -18 10 -40 10
-22 0 -40 -4 -40 -10z"/>
<path d="M1890 1040 c0 -22 5 -40 10 -40 6 0 10 14 10 30 0 29 2 30 45 30 25
0 45 5 45 10 0 6 -25 10 -55 10 l-55 0 0 -40z"/>
<path d="M1570 1040 c0 -5 7 -10 16 -10 8 0 12 5 9 10 -3 6 -10 10 -16 10 -5
0 -9 -4 -9 -10z"/>
<path d="M988 974 c-9 -8 85 -134 99 -134 7 0 -10 32 -38 70 -54 74 -53 73
-61 64z"/>
<path d="M597 933 c-10 -16 33 -74 72 -97 42 -24 110 -24 153 1 34 20 75 79
63 91 -4 4 -12 -2 -19 -13 -39 -68 -108 -99 -166 -75 -29 12 -62 45 -86 86 -6
11 -13 14 -17 7z"/>
<path d="M1850 876 c0 -37 4 -66 10 -66 6 0 10 26 10 59 0 33 -4 63 -10 66 -6
4 -10 -18 -10 -59z"/>
<path d="M1360 865 c0 -30 5 -55 10 -55 6 0 10 25 10 55 0 30 -4 55 -10 55 -5
0 -10 -25 -10 -55z"/>
<path d="M990 859 c0 -31 4 -48 10 -44 6 3 10 26 10 51 0 24 -4 44 -10 44 -5
0 -10 -23 -10 -51z"/>
<path d="M625 746 c-71 -31 -115 -115 -101 -191 15 -78 115 -145 193 -130 44
8 106 43 98 55 -3 5 -22 -2 -42 -15 -93 -64 -220 -1 -230 114 -8 89 57 161
144 161 53 0 113 -26 113 -49 0 -13 2 -14 9 -1 13 19 7 27 -39 50 -45 23 -101
25 -145 6z"/>
<path d="M965 746 c-17 -7 -45 -29 -62 -49 -78 -89 -42 -219 72 -263 142 -54
280 100 210 235 l-17 33 -41 -38 c-23 -21 -70 -66 -104 -98 -102 -98 -85 -53
20 52 53 54 97 100 97 104 0 11 -80 38 -113 38 -17 -1 -46 -7 -62 -14z m131
-16 c19 -8 24 -14 17 -21 -8 -8 -17 -8 -31 0 -71 38 -182 -33 -182 -117 0 -74
81 -141 155 -128 61 12 107 65 107 126 0 3 -3 22 -6 43 -9 48 9 49 24 1 31
-92 -46 -194 -145 -194 -83 0 -155 67 -155 145 0 113 109 185 216 145z m-12
-38 c3 -5 -30 -43 -73 -86 -84 -83 -91 -84 -91 -9 0 26 8 43 34 69 29 29 41
34 79 34 25 0 48 -4 51 -8z m55 -144 c-15 -37 -63 -68 -106 -68 -66 0 -64 8
21 90 l81 79 9 -35 c5 -23 4 -45 -5 -66z"/>
<path d="M1250 612 l0 -152 120 0 c73 0 120 4 120 10 0 6 -39 10 -96 10 l-96
0 3 135 c2 74 0 137 -4 141 -4 4 -7 -56 -7 -134 0 -122 -2 -142 -16 -142 -13
0 -15 18 -13 135 1 74 -1 138 -4 142 -4 3 -7 -62 -7 -145z"/>
<path d="M1530 610 l0 -150 120 0 c73 0 120 4 120 10 0 6 -37 10 -90 10 l-90
0 0 140 c0 87 -4 140 -10 140 -6 0 -10 -53 -10 -140 0 -87 -4 -140 -10 -140
-6 0 -10 53 -10 140 0 87 -4 140 -10 140 -6 0 -10 -57 -10 -150z"/>
<path d="M1902 601 c-45 -87 -82 -167 -81 -177 0 -12 8 -3 22 24 11 23 27 42
34 42 11 0 10 -6 -2 -30 -17 -32 -19 -50 -7 -50 5 0 15 18 22 40 l13 40 82 0
81 0 21 -42 c15 -30 22 -37 22 -23 1 11 -6 31 -15 43 -14 20 -14 22 1 22 10 0
23 -17 33 -40 9 -22 20 -40 25 -40 12 0 7 23 -12 59 l-18 33 -126 -1 c-111 -2
-126 0 -121 13 5 13 26 16 115 16 60 0 109 2 109 5 0 13 -85 175 -92 175 -5 0
-27 -38 -50 -85 -23 -47 -49 -85 -56 -85 -9 0 6 38 42 107 61 115 60 113 48
113 -4 0 -45 -71 -90 -159z m143 16 c17 -34 32 -65 33 -69 2 -5 -1 -8 -6 -8
-13 0 -72 102 -72 124 0 30 15 15 45 -47z m-30 -27 l25 -50 -50 0 c-27 0 -50
2 -50 5 0 7 43 95 47 95 1 0 14 -22 28 -50z"/>
<path d="M2200 750 c0 -6 30 -10 71 -10 82 0 102 -8 119 -50 10 -24 10 -36 0
-60 -7 -16 -16 -30 -21 -30 -13 0 -20 18 -9 25 17 10 11 61 -8 78 -13 12 -37
17 -85 17 l-67 0 2 -157 c1 -122 3 -140 7 -80 8 99 25 105 29 10 l3 -73 45 0
c51 0 98 21 114 49 14 28 12 84 -4 106 -11 16 -11 21 0 33 8 7 14 31 14 53 0
31 -7 47 -29 70 -27 27 -35 29 -105 29 -44 0 -76 -4 -76 -10z m40 -85 c0 -33
-4 -45 -15 -45 -11 0 -15 11 -15 38 0 21 3 42 7 45 16 16 23 4 23 -38z m110
15 c19 -36 -3 -60 -55 -60 l-45 0 0 40 0 40 45 0 c34 0 47 -5 55 -20z m5 -86
c18 -7 45 -55 45 -79 0 -9 -13 -30 -29 -46 -24 -24 -38 -29 -75 -29 -25 0 -46
5 -46 10 0 6 17 10 38 10 48 0 82 23 82 57 0 46 -26 63 -97 63 -35 0 -63 4
-63 10 0 11 118 14 145 4z m-5 -54 c19 -36 -3 -60 -55 -60 l-45 0 0 40 0 40
45 0 c34 0 47 -5 55 -20z"/>
<path d="M633 706 c-38 -17 -62 -51 -70 -99 -17 -108 127 -188 209 -116 25 22
21 22 -43 -4 -69 -27 -149 29 -149 105 0 32 7 47 34 74 29 29 41 34 80 34 33
0 52 -6 67 -21 11 -11 23 -18 27 -15 3 4 -3 16 -15 27 -26 27 -97 34 -140 15z"/>
<path d="M1250 428 c0 -10 31 -13 120 -13 89 0 120 3 120 13 0 9 -31 12 -120
12 -89 0 -120 -3 -120 -12z"/>
<path d="M1530 428 c0 -10 31 -13 120 -13 89 0 120 3 120 13 0 9 -31 12 -120
12 -89 0 -120 -3 -120 -12z"/>
</g>
</svg>
